<svg xmlns="http://www.w3.org/2000/svg" viewBox="0 0 388.99 369.64"><defs><style>.cls-1{fill:#c50e28;}.cls-2{fill:#e7c2a6;}.cls-3{fill:#f6ac19;}.cls-4{fill:#fefefe;}.cls-5{fill:#010101;}</style></defs><title>risako charo</title><g id="Layer_2" data-name="Layer 2"><g id="Layer_6" data-name="Layer 6"><path d="M37.41,173.81c4,7.19,7.21,14.14,12.42,19.81,1.64,1.79,3.24,4.75,5.74,4.2,2.11-.48,1.51-3.79,2-5.8,8.2-33.27,25.51-61.65,46.94-87.81,5.47-6.67,11.37-13,17.41-19.84a74.46,74.46,0,0,1-18.6-4.47c-13.49-5.23-16.51-16.59-7.18-27.61,8.5-10,20.29-13.35,32.65-15.08,7.89-1.1,15.86-1.6,24.1-.08-2-4.61-3.82-8.85-3.93-13.59C148.64,9.88,157.56.59,171.19.05,185.74-.53,199,4.17,211.62,10.46c22.16,11,39.57,27.2,51.4,49.09a11.58,11.58,0,0,0,6.06,5.4c32.3,14,60.8,33.4,83.62,60.47Q395,175.57,388,240.94c-3.7,34.33-17.66,63.23-43.63,86.15C321.77,347,295.19,359.28,266,364.62c-41.66,7.61-83.39,7.19-124.24-5.64-35.86-11.25-62.92-32.9-77.46-68.43A140.15,140.15,0,0,1,54.1,243.71c-.23-4.85-2.24-4.93-5.53-3.59-5.78,2.35-10.46,6.4-15,10.59-2.89,2.7-4.39,2.68-5.74-1.37-3.26-9.76-3.38-9.74,4.64-16.12,1.14-.91,2.33-1.77,4.42-3.35-6.58-1-12.19-2-17.81-2.79-5.26-.77-10.52-1.55-15.81-2.07-3-.3-3.36-2.21-3.32-4.53.14-7.73,3.48-14.39,7-21,1.12-2.12,2.31-.89,3.68-.41,8.74,3.05,17.72,5.18,28.14,7.72-5.25-4.26-9.27-7.72-13.5-10.89-2.47-1.84-2.36-3.47-.62-5.67C28.9,184.9,33,179.51,37.41,173.81Z"/><path class="cls-1" d="M117.91,340.48c-17.8-8.17-30.2-22.1-40.13-38.4-10.48-17.19-15.2-36.09-17-56.15-4.41-48.22,12.51-89.23,40.75-126.85,10-13.33,21.85-25,32.75-37.53,1.18-1.36,3.39-1.18,5.2-1.42a63.77,63.77,0,0,0,17.93-4.73C148.49,76.54,139.64,78,130.7,78a61.4,61.4,0,0,1-27.06-5.75c-6.49-3.15-7.58-7.84-3.46-13.81,4.72-6.83,11.84-10,19.41-12.27,14.18-4.3,28.59-2.93,43-1.47,1.69.17,3.28,1.51,4.87,2.4a105.15,105.15,0,0,0,31.36,11.46c-1.5-2.27-3.35-2.27-4.8-2.94s-3.08-1.23-4.6-1.91a152.94,152.94,0,0,1-22.5-11.81C160.19,37.44,156.26,31,156,22.74c-.31-8.9,5.6-15,14.58-15.66,8.11-.56,15.86,1,23.46,3.64,28.78,10,50.63,28.1,64.54,55.39,1.11,2.19,2.74,3.1,4.77,4,29.32,12.38,55.42,29.52,77.49,52.56a174.9,174.9,0,0,1,17.76,22.2c1.66,2.42,1.27,3.52-1.33,4.79q-34.33,16.6-68.55,33.44a8.6,8.6,0,0,1-6.23.48c-27.26-6.5-54.57-12.81-81.8-19.45-4.69-1.15-6-.27-5.9,4.57a110.24,110.24,0,0,1-1.15,16.41c-.42,3.26.8,3.83,3.67,4.09,9.08.81,18.14,1.93,28,3-8.35,12.45-10.63,25.24-2.75,38,7.75,12.59,19.74,17.79,35.35,17L238.94,272c-5.77,2.37-12,2.12-18,3.23-27.13,5-52.2,14.68-73.65,32.49a118.55,118.55,0,0,0-25.38,28.67C120.89,338,120.33,340.18,117.91,340.48Z"/><path class="cls-2" d="M117.91,340.48c24.73-41.34,63.26-60.31,109.14-67.41A66.83,66.83,0,0,1,238.94,272c-.75,1.45-1.65,2.64.17,4.26,15.75,14,30,29.67,46.35,43.09,9.76,8,10.51,8.39,20.11.18,7.42-6.35,14.2-13.46,21.26-20.23,5.7,2.81,7.91,8.45,10.72,13.51,1.45,2.6,3.64,5.22,2.23,8.65C321.1,340,297.94,350,272.72,355.26c-46.6,9.74-92.78,8.14-138.15-7.17C128.78,346.14,123,344.09,117.91,340.48Z"/><path class="cls-3" d="M262.39,279.85c-6.29-.26-12.65,0-18.54-2.92-3-1.49-3.7-2.88-1.36-6,11-14.59,22-29.24,36-41.24,7.07-6,14.3-7.38,23-3.73,20.76,8.76,39.47,20.42,54.85,37.06,2.71,2.94,6.6,6.48,5.72,9.9-.64,2.53-6.21,1-9.55,1.24C322.46,276.05,292.48,278.74,262.39,279.85Z"/><path class="cls-1" d="M339.78,321.44c-2.5-8.45-7.37-15.51-12.95-22.16,5.62-7,12.31-13.1,17-20.81,1.13-1.84,2.91-1.53,4.41-1.68,4.13-.41,8.3-.53,12.45-.7,4.67-.2,5.37-1.17,3.34-5.4-4.08-8.48-11-14.54-17.94-20.5-3.25-2.8-6.74-5.32-10.63-8.37,12-5.82,20.55-14.15,22.46-27.46S355,190.58,343.87,182c9.46-3,18.34-6,27.28-8.69,2.74-.83,2.78,1.92,3.32,3.41a120.47,120.47,0,0,1,7.18,33.47c1.74,27.13-1.62,53.43-14.84,77.73C359.86,300.7,351.39,312.36,339.78,321.44Z"/><path class="cls-4" d="M286.11,209.29c.27-1.44.77-4.21,1.3-7,.36-1.94,1.42-2.94,3.45-3.57,15.93-4.95,31.81-10.05,47.67-15.19a4.51,4.51,0,0,1,4.62.65c9,7,14.17,15.85,13.06,27.44-1.32,13.75-9.33,22.6-21.65,28-2.24,1-3.43-.61-4.88-1.51-9.16-5.68-18.5-11-28.76-14.51-1.72-.58-3.46-1.1-5.21-1.6-2.48-.72-5.3.5-7.57-1.23C287.35,220.23,286.12,213.13,286.11,209.29Z"/><path class="cls-4" d="M254.45,245.34c-20.82-.65-35.24-15.2-34.49-33.76a29.38,29.38,0,0,1,2.33-9.59c3.35-8.48,5.94-9.72,14.87-8.59,14,1.75,28,3.22,42,4.81.66.07,1.32.1,2,.19,3.08.37,5.61.55,3.9,5.19-1.92,5.22-1.25,10.79.51,16.12.57,1.72.41,2.75-1.59,3.86a68.64,68.64,0,0,0-19.86,17.18C261.14,244.42,257.86,245.84,254.45,245.34Z"/><path class="cls-3" d="M342.29,277.18c-6.08,8.81-12.8,15.67-19.29,22.72-7.09,7.72-14.5,15.13-23,21.32-2.11,1.54-4.15,3.06-7.14,1.18-5.79-3.65-39.51-34.71-44.13-41.14C279.8,282.93,310.43,278.24,342.29,277.18Z"/><path class="cls-5" d="M307.51,198.77a9.33,9.33,0,0,1,9.4,8.88,9.46,9.46,0,0,1-9.43,9.47,9.18,9.18,0,1,1,0-18.35Z"/><path d="M262.51,222.16a9.14,9.14,0,1,1,0-18.28,9.14,9.14,0,1,1,0,18.28Z"/></g></g></svg>